<svg xmlns="http://www.w3.org/2000/svg" viewBox="0 0 240 280" role="img" aria-label="Mirai Innovation">
  <title>Mirai Innovation</title>
  <defs>
    <style>
      .mi-link { stroke: #1BA3C9; stroke-width: 2.5; fill: none; stroke-linecap: round; }
      .mi-node { fill: #1BA3C9; stroke: #FFFFFF; stroke-width: 2.5; }
      .mi-text { font-family: -apple-system, BlinkMacSystemFont, "Segoe UI", system-ui, sans-serif; fill: #1BA3C9; }
    </style>
  </defs>

  <g class="mi-link">
    <line x1="80" y1="40" x2="125" y2="35"/>
    <line x1="125" y1="35" x2="170" y2="50"/>
    <line x1="80" y1="40" x2="55" y2="80"/>
    <line x1="170" y1="50" x2="200" y2="85"/>
    <line x1="55" y1="80" x2="90" y2="92"/>
    <line x1="90" y1="92" x2="125" y2="85"/>
    <line x1="125" y1="85" x2="160" y2="100"/>
    <line x1="160" y1="100" x2="200" y2="85"/>
    <line x1="125" y1="35" x2="125" y2="85"/>
    <line x1="80" y1="40" x2="90" y2="92"/>
    <line x1="170" y1="50" x2="160" y2="100"/>
    <line x1="90" y1="92" x2="80" y2="138"/>
    <line x1="125" y1="85" x2="115" y2="138"/>
    <line x1="160" y1="100" x2="170" y2="142"/>
    <line x1="80" y1="138" x2="115" y2="138"/>
    <line x1="115" y1="138" x2="170" y2="142"/>
    <line x1="80" y1="138" x2="100" y2="172"/>
    <line x1="170" y1="142" x2="150" y2="172"/>
    <line x1="100" y1="172" x2="150" y2="172"/>
    <line x1="115" y1="138" x2="100" y2="172"/>
    <line x1="115" y1="138" x2="150" y2="172"/>
  </g>

  <g class="mi-node">
    <circle cx="80" cy="40" r="13"/>
    <circle cx="125" cy="35" r="9"/>
    <circle cx="170" cy="50" r="14"/>
    <circle cx="55" cy="80" r="11"/>
    <circle cx="90" cy="92" r="8"/>
    <circle cx="125" cy="85" r="16"/>
    <circle cx="160" cy="100" r="9"/>
    <circle cx="200" cy="85" r="11"/>
    <circle cx="80" cy="138" r="10"/>
    <circle cx="115" cy="138" r="11"/>
    <circle cx="170" cy="142" r="12"/>
    <circle cx="100" cy="172" r="9"/>
    <circle cx="150" cy="172" r="10"/>
  </g>

  <text x="120" y="228" text-anchor="middle" class="mi-text" font-size="46" font-weight="700" letter-spacing="3">MIRAI</text>
  <text x="120" y="256" text-anchor="middle" class="mi-text" font-size="13" font-weight="500" letter-spacing="9">INNOVATION</text>
</svg>
